<svg xmlns="http://www.w3.org/2000/svg" xmlns:xlink="http://www.w3.org/1999/xlink" width="500" zoomAndPan="magnify" viewBox="0 0 375 374.999991" height="500" preserveAspectRatio="xMidYMid meet" version="1.0"><defs><g/></defs><g fill="#54423a" fill-opacity="1"><g transform="translate(3.725885, 336.615035)"><g><path d="M 67.25 6.3125 C 60.726562 6.3125 53.835938 5.46875 46.578125 3.78125 C 39.316406 2.101562 32.472656 -0.15625 26.046875 -3 C 19.628906 -5.84375 14.3125 -8.84375 10.09375 -12 C 5.882812 -15.15625 3.570312 -18.101562 3.15625 -20.84375 L 3.15625 -73.5625 C 6.3125 -75.882812 9.570312 -77.625 12.9375 -78.78125 C 16.3125 -79.9375 20.3125 -80.515625 24.9375 -80.515625 C 32.9375 -80.515625 39.882812 -78.460938 45.78125 -74.359375 C 51.675781 -70.253906 57.097656 -65.203125 62.046875 -59.203125 C 66.992188 -53.203125 71.941406 -47.203125 76.890625 -41.203125 C 81.835938 -35.203125 87.304688 -30.148438 93.296875 -26.046875 C 99.296875 -21.941406 106.40625 -19.890625 114.625 -19.890625 C 120.09375 -19.890625 124.878906 -21.414062 128.984375 -24.46875 C 133.085938 -27.519531 136.347656 -31.304688 138.765625 -35.828125 C 141.191406 -40.359375 142.40625 -44.832031 142.40625 -49.25 C 142.40625 -58.09375 139.929688 -66.351562 134.984375 -74.03125 C 130.035156 -81.71875 123.507812 -89.296875 115.40625 -96.765625 C 107.300781 -104.242188 98.351562 -111.820312 88.5625 -119.5 C 78.78125 -127.1875 68.992188 -135.34375 59.203125 -143.96875 C 49.410156 -152.601562 40.460938 -161.972656 32.359375 -172.078125 C 24.253906 -182.179688 17.726562 -193.335938 12.78125 -205.546875 C 7.84375 -217.753906 5.375 -231.4375 5.375 -246.59375 C 5.375 -254.59375 6.789062 -262.695312 9.625 -270.90625 C 12.46875 -279.125 16.675781 -286.597656 22.25 -293.328125 C 27.832031 -300.066406 34.519531 -305.488281 42.3125 -309.59375 C 50.101562 -313.695312 58.835938 -315.75 68.515625 -315.75 L 164.5 -315.75 L 164.5 -257.015625 C 162.820312 -255.335938 160.507812 -253.863281 157.5625 -252.59375 C 154.613281 -251.332031 151.242188 -250.703125 147.453125 -250.703125 C 140.085938 -250.703125 132.300781 -252.28125 124.09375 -255.4375 C 115.882812 -258.59375 107.726562 -262.539062 99.625 -267.28125 C 91.519531 -272.019531 83.832031 -276.703125 76.5625 -281.328125 C 69.300781 -285.960938 62.878906 -289.859375 57.296875 -293.015625 C 51.722656 -296.171875 47.460938 -297.75 44.515625 -297.75 C 42.203125 -297.75 40.148438 -296.535156 38.359375 -294.109375 C 36.578125 -291.691406 35.6875 -288.59375 35.6875 -284.8125 C 35.6875 -273.019531 38.15625 -262.492188 43.09375 -253.234375 C 48.039062 -243.972656 54.566406 -235.445312 62.671875 -227.65625 C 70.773438 -219.863281 79.664062 -212.226562 89.34375 -204.75 C 99.03125 -197.28125 108.71875 -189.597656 118.40625 -181.703125 C 128.09375 -173.816406 136.988281 -165.082031 145.09375 -155.5 C 153.195312 -145.925781 159.71875 -135.140625 164.65625 -123.140625 C 169.601562 -111.140625 172.078125 -97.25 172.078125 -81.46875 C 172.078125 -63.363281 167.550781 -47.734375 158.5 -34.578125 C 149.445312 -21.421875 137.023438 -11.316406 121.234375 -4.265625 C 105.453125 2.785156 87.457031 6.3125 67.25 6.3125 Z M 67.25 6.3125 "/></g></g></g><g fill="#54423a" fill-opacity="1"><g transform="translate(178.971016, 336.615035)"><g><path d="M 9.46875 -315.75 L 76.40625 -315.75 C 96.613281 -315.75 113.71875 -311.273438 127.71875 -302.328125 C 141.71875 -293.378906 152.976562 -281.378906 161.5 -266.328125 C 170.03125 -251.285156 176.242188 -234.34375 180.140625 -215.5 C 184.035156 -196.65625 185.984375 -177.445312 185.984375 -157.875 C 185.984375 -134.925781 183.296875 -113.453125 177.921875 -93.453125 C 172.554688 -73.460938 164.660156 -56.046875 154.234375 -41.203125 C 143.816406 -26.359375 130.976562 -14.726562 115.71875 -6.3125 C 100.457031 2.101562 82.9375 6.3125 63.15625 6.3125 C 50.3125 6.3125 39.941406 3.207031 32.046875 -3 C 24.148438 -9.207031 18.410156 -17.414062 14.828125 -27.625 C 11.253906 -37.832031 9.46875 -48.9375 9.46875 -60.9375 Z M 24 -257.015625 C 24 -250.285156 25.578125 -243.34375 28.734375 -236.1875 C 31.890625 -229.03125 35.832031 -221.554688 40.5625 -213.765625 C 45.300781 -205.972656 49.988281 -197.921875 54.625 -189.609375 C 59.257812 -181.296875 63.15625 -172.664062 66.3125 -163.71875 C 69.46875 -154.769531 71.046875 -145.5625 71.046875 -136.09375 C 71.046875 -125.988281 69.625 -116.988281 66.78125 -109.09375 C 63.9375 -101.195312 60.410156 -94.035156 56.203125 -87.609375 C 51.992188 -81.191406 47.726562 -75.300781 43.40625 -69.9375 C 39.09375 -64.570312 35.515625 -59.363281 32.671875 -54.3125 C 29.835938 -49.257812 28.421875 -43.992188 28.421875 -38.515625 C 28.421875 -32.203125 30.050781 -27.726562 33.3125 -25.09375 C 36.570312 -22.46875 40.203125 -21.15625 44.203125 -21.15625 C 52.835938 -21.15625 61.890625 -25.046875 71.359375 -32.828125 C 80.828125 -40.617188 90.140625 -51.25 99.296875 -64.71875 C 108.453125 -78.195312 116.660156 -93.515625 123.921875 -110.671875 C 131.191406 -127.828125 137.035156 -145.875 141.453125 -164.8125 C 145.878906 -183.757812 148.09375 -202.5 148.09375 -221.03125 C 148.09375 -237.863281 145.828125 -251.703125 141.296875 -262.546875 C 136.773438 -273.390625 131.460938 -281.441406 125.359375 -286.703125 C 119.253906 -291.960938 113.882812 -294.59375 109.25 -294.59375 C 104.195312 -294.59375 99.722656 -292.644531 95.828125 -288.75 C 91.929688 -284.851562 88.085938 -280.328125 84.296875 -275.171875 C 80.515625 -270.015625 76.253906 -265.488281 71.515625 -261.59375 C 66.773438 -257.695312 60.9375 -255.75 54 -255.75 C 50.414062 -255.75 47.203125 -256.695312 44.359375 -258.59375 C 41.515625 -260.488281 38.988281 -262.332031 36.78125 -264.125 C 34.570312 -265.914062 32.519531 -266.8125 30.625 -266.8125 C 28.519531 -266.8125 26.890625 -265.914062 25.734375 -264.125 C 24.578125 -262.332031 24 -259.960938 24 -257.015625 Z M 24 -257.015625 "/></g></g></g></svg>